<svg width="180" height="216" viewBox="0 0 180 216" fill="none" xmlns="http://www.w3.org/2000/svg">
<rect width="180" height="216" rx="12" fill="#4EB7F2"/>
<circle cx="50" cy="46" r="30" fill="white" fill-opacity="0.1"/>
<path d="M59.7333 40.56V47.4267C59.7333 51.5333 57.3867 53.2933 53.8667 53.2933H42.1467C41.5467 53.2933 40.9733 53.24 40.44 53.12C40.1067 53.0667 39.7867 52.9734 39.4933 52.8667C37.4933 52.12 36.28 50.3867 36.28 47.4267V40.56C36.28 36.4533 38.6267 34.6934 42.1467 34.6934H53.8667C56.8533 34.6934 59 35.96 59.5733 38.8534C59.6667 39.3867 59.7333 39.9333 59.7333 40.56Z" stroke="white" stroke-width="1.5" stroke-miterlimit="10" stroke-linecap="round" stroke-linejoin="round"/>
<path d="M63.7348 44.5601V51.4268C63.7348 55.5335 61.3881 57.2935 57.8681 57.2935H46.1481C45.1615 57.2935 44.2681 57.1602 43.4948 56.8669C41.9081 56.2802 40.8281 55.0669 40.4415 53.1202C40.9748 53.2402 41.5481 53.2935 42.1481 53.2935H53.8681C57.3881 53.2935 59.7348 51.5335 59.7348 47.4268V40.5601C59.7348 39.9335 59.6815 39.3735 59.5748 38.8535C62.1081 39.3868 63.7348 41.1735 63.7348 44.5601Z" stroke="white" stroke-width="1.5" stroke-miterlimit="10" stroke-linecap="round" stroke-linejoin="round"/>
<path d="M47.9979 47.5199C49.942 47.5199 51.5179 45.9439 51.5179 43.9998C51.5179 42.0558 49.942 40.4798 47.9979 40.4798C46.0539 40.4798 44.4779 42.0558 44.4779 43.9998C44.4779 45.9439 46.0539 47.5199 47.9979 47.5199Z" stroke="white" stroke-width="1.5" stroke-miterlimit="10" stroke-linecap="round" stroke-linejoin="round"/>
<path d="M40.3734 41.0667V46.9333" stroke="white" stroke-width="1.5" stroke-miterlimit="10" stroke-linecap="round" stroke-linejoin="round"/>
<path d="M55.629 41.067V46.9337" stroke="white" stroke-width="1.5" stroke-miterlimit="10" stroke-linecap="round" stroke-linejoin="round"/>
<path d="M144.91 53.92L151.43 47.4C152.2 46.63 152.2 45.37 151.43 44.6L144.91 38.08" stroke="white" stroke-width="1.5" stroke-miterlimit="10" stroke-linecap="round" stroke-linejoin="round"/>
<path d="M21.504 126V114.8H26.752C28.096 114.8 29.12 115.067 29.824 115.6C30.528 116.123 30.88 116.827 30.88 117.712C30.88 118.309 30.7413 118.821 30.464 119.248C30.1867 119.664 29.8133 119.989 29.344 120.224C28.8853 120.448 28.384 120.56 27.84 120.56L28.128 119.984C28.7573 119.984 29.3227 120.101 29.824 120.336C30.3253 120.56 30.72 120.891 31.008 121.328C31.3067 121.765 31.456 122.309 31.456 122.96C31.456 123.92 31.088 124.667 30.352 125.2C29.616 125.733 28.5227 126 27.072 126H21.504ZM23.584 124.368H26.944C27.7227 124.368 28.32 124.24 28.736 123.984C29.152 123.728 29.36 123.317 29.36 122.752C29.36 122.197 29.152 121.792 28.736 121.536C28.32 121.269 27.7227 121.136 26.944 121.136H23.424V119.52H26.528C27.2533 119.52 27.808 119.392 28.192 119.136C28.5867 118.88 28.784 118.496 28.784 117.984C28.784 117.461 28.5867 117.072 28.192 116.816C27.808 116.56 27.2533 116.432 26.528 116.432H23.584V124.368ZM38.7479 126V124.272L38.6359 123.904V120.88C38.6359 120.293 38.4599 119.84 38.1079 119.52C37.7559 119.189 37.2225 119.024 36.5079 119.024C36.0279 119.024 35.5532 119.099 35.0839 119.248C34.6252 119.397 34.2359 119.605 33.9159 119.872L33.1319 118.416C33.5905 118.064 34.1345 117.803 34.7639 117.632C35.4039 117.451 36.0652 117.36 36.7479 117.36C37.9852 117.36 38.9399 117.659 39.6119 118.256C40.2945 118.843 40.6359 119.755 40.6359 120.992V126H38.7479ZM36.0599 126.112C35.4199 126.112 34.8599 126.005 34.3799 125.792C33.8999 125.568 33.5265 125.264 33.2599 124.88C33.0039 124.485 32.8759 124.043 32.8759 123.552C32.8759 123.072 32.9879 122.64 33.2119 122.256C33.4465 121.872 33.8252 121.568 34.3479 121.344C34.8705 121.12 35.5639 121.008 36.4279 121.008H38.9079V122.336H36.5719C35.8892 122.336 35.4305 122.448 35.1959 122.672C34.9612 122.885 34.8439 123.152 34.8439 123.472C34.8439 123.835 34.9879 124.123 35.2759 124.336C35.5639 124.549 35.9639 124.656 36.4759 124.656C36.9665 124.656 37.4039 124.544 37.7879 124.32C38.1825 124.096 38.4652 123.765 38.6359 123.328L38.9719 124.528C38.7799 125.029 38.4332 125.419 37.9319 125.696C37.4412 125.973 36.8172 126.112 36.0599 126.112ZM43.2026 126V114.128H45.2026V126H43.2026ZM53.0916 126V124.272L52.9796 123.904V120.88C52.9796 120.293 52.8036 119.84 52.4516 119.52C52.0996 119.189 51.5663 119.024 50.8516 119.024C50.3716 119.024 49.897 119.099 49.4276 119.248C48.969 119.397 48.5796 119.605 48.2596 119.872L47.4756 118.416C47.9343 118.064 48.4783 117.803 49.1076 117.632C49.7476 117.451 50.409 117.36 51.0916 117.36C52.329 117.36 53.2836 117.659 53.9556 118.256C54.6383 118.843 54.9796 119.755 54.9796 120.992V126H53.0916ZM50.4036 126.112C49.7636 126.112 49.2036 126.005 48.7236 125.792C48.2436 125.568 47.8703 125.264 47.6036 124.88C47.3476 124.485 47.2196 124.043 47.2196 123.552C47.2196 123.072 47.3316 122.64 47.5556 122.256C47.7903 121.872 48.169 121.568 48.6916 121.344C49.2143 121.12 49.9076 121.008 50.7716 121.008H53.2516V122.336H50.9156C50.233 122.336 49.7743 122.448 49.5396 122.672C49.305 122.885 49.1876 123.152 49.1876 123.472C49.1876 123.835 49.3316 124.123 49.6196 124.336C49.9076 124.549 50.3076 124.656 50.8196 124.656C51.3103 124.656 51.7476 124.544 52.1316 124.32C52.5263 124.096 52.809 123.765 52.9796 123.328L53.3156 124.528C53.1236 125.029 52.777 125.419 52.2756 125.696C51.785 125.973 51.161 126.112 50.4036 126.112ZM62.3944 117.36C63.077 117.36 63.685 117.493 64.2184 117.76C64.7624 118.027 65.189 118.437 65.4984 118.992C65.8077 119.536 65.9624 120.24 65.9624 121.104V126H63.9624V121.36C63.9624 120.603 63.781 120.037 63.4184 119.664C63.0664 119.291 62.5704 119.104 61.9304 119.104C61.461 119.104 61.045 119.2 60.6824 119.392C60.3197 119.584 60.037 119.872 59.8344 120.256C59.6424 120.629 59.5464 121.104 59.5464 121.68V126H57.5464V117.456H59.4504V119.76L59.1144 119.056C59.413 118.512 59.845 118.096 60.4104 117.808C60.9864 117.509 61.6477 117.36 62.3944 117.36ZM72.4351 126.112C71.5391 126.112 70.7391 125.925 70.0351 125.552C69.3418 125.168 68.7978 124.645 68.4031 123.984C68.0085 123.323 67.8111 122.571 67.8111 121.728C67.8111 120.875 68.0085 120.123 68.4031 119.472C68.7978 118.811 69.3418 118.293 70.0351 117.92C70.7391 117.547 71.5391 117.36 72.4351 117.36C73.2671 117.36 73.9978 117.531 74.6271 117.872C75.2671 118.203 75.7525 118.693 76.0831 119.344L74.5471 120.24C74.2911 119.835 73.9765 119.536 73.6031 119.344C73.2405 119.152 72.8458 119.056 72.4191 119.056C71.9285 119.056 71.4858 119.163 71.0911 119.376C70.6965 119.589 70.3871 119.899 70.1631 120.304C69.9391 120.699 69.8271 121.173 69.8271 121.728C69.8271 122.283 69.9391 122.763 70.1631 123.168C70.3871 123.563 70.6965 123.867 71.0911 124.08C71.4858 124.293 71.9285 124.4 72.4191 124.4C72.8458 124.4 73.2405 124.304 73.6031 124.112C73.9765 123.92 74.2911 123.621 74.5471 123.216L76.0831 124.112C75.7525 124.752 75.2671 125.248 74.6271 125.6C73.9978 125.941 73.2671 126.112 72.4351 126.112ZM81.703 126.112C80.7537 126.112 79.9217 125.925 79.207 125.552C78.503 125.168 77.9537 124.645 77.559 123.984C77.175 123.323 76.983 122.571 76.983 121.728C76.983 120.875 77.1697 120.123 77.543 119.472C77.927 118.811 78.4497 118.293 79.111 117.92C79.783 117.547 80.5457 117.36 81.399 117.36C82.231 117.36 82.9723 117.541 83.623 117.904C84.2737 118.267 84.7857 118.779 85.159 119.44C85.5323 120.101 85.719 120.88 85.719 121.776C85.719 121.861 85.7137 121.957 85.703 122.064C85.703 122.171 85.6977 122.272 85.687 122.368H78.567V121.04H84.631L83.847 121.456C83.8577 120.965 83.7563 120.533 83.543 120.16C83.3297 119.787 83.0363 119.493 82.663 119.28C82.3003 119.067 81.879 118.96 81.399 118.96C80.9083 118.96 80.4763 119.067 80.103 119.28C79.7403 119.493 79.4523 119.792 79.239 120.176C79.0363 120.549 78.935 120.992 78.935 121.504V121.824C78.935 122.336 79.0523 122.789 79.287 123.184C79.5217 123.579 79.8523 123.883 80.279 124.096C80.7057 124.309 81.1963 124.416 81.751 124.416C82.231 124.416 82.663 124.341 83.047 124.192C83.431 124.043 83.7723 123.808 84.071 123.488L85.143 124.72C84.759 125.168 84.2737 125.515 83.687 125.76C83.111 125.995 82.4497 126.112 81.703 126.112Z" fill="white"/>
<path d="M20.028 152L24.508 142.2H25.53L30.01 152H28.918L24.802 142.802H25.222L21.106 152H20.028ZM21.792 149.382L22.1 148.542H27.798L28.106 149.382H21.792ZM35.2152 152.07C34.5805 152.07 34.0065 151.925 33.4932 151.636C32.9798 151.337 32.5692 150.913 32.2612 150.362C31.9625 149.802 31.8132 149.121 31.8132 148.318C31.8132 147.515 31.9625 146.839 32.2612 146.288C32.5598 145.728 32.9658 145.303 33.4792 145.014C33.9925 144.725 34.5712 144.58 35.2152 144.58C35.9152 144.58 36.5405 144.739 37.0912 145.056C37.6512 145.364 38.0898 145.803 38.4072 146.372C38.7245 146.932 38.8832 147.581 38.8832 148.318C38.8832 149.065 38.7245 149.718 38.4072 150.278C38.0898 150.838 37.6512 151.277 37.0912 151.594C36.5405 151.911 35.9152 152.07 35.2152 152.07ZM31.4212 154.716V144.65H32.3732V146.862L32.2752 148.332L32.4152 149.816V154.716H31.4212ZM35.1452 151.188C35.6678 151.188 36.1345 151.071 36.5452 150.838C36.9558 150.595 37.2825 150.259 37.5252 149.83C37.7678 149.391 37.8892 148.887 37.8892 148.318C37.8892 147.749 37.7678 147.249 37.5252 146.82C37.2825 146.391 36.9558 146.055 36.5452 145.812C36.1345 145.569 35.6678 145.448 35.1452 145.448C34.6225 145.448 34.1512 145.569 33.7312 145.812C33.3205 146.055 32.9938 146.391 32.7512 146.82C32.5178 147.249 32.4012 147.749 32.4012 148.318C32.4012 148.887 32.5178 149.391 32.7512 149.83C32.9938 150.259 33.3205 150.595 33.7312 150.838C34.1512 151.071 34.6225 151.188 35.1452 151.188ZM40.9094 152V144.65H41.8614V146.652L41.7634 146.302C41.9688 145.742 42.3141 145.317 42.7994 145.028C43.2848 144.729 43.8868 144.58 44.6054 144.58V145.546C44.5681 145.546 44.5308 145.546 44.4934 145.546C44.4561 145.537 44.4188 145.532 44.3814 145.532C43.6068 145.532 43.0001 145.77 42.5614 146.246C42.1228 146.713 41.9034 147.38 41.9034 148.248V152H40.9094ZM46.4192 152V144.65H47.4132V152H46.4192ZM46.9232 143.026C46.7179 143.026 46.5452 142.956 46.4052 142.816C46.2652 142.676 46.1952 142.508 46.1952 142.312C46.1952 142.116 46.2652 141.953 46.4052 141.822C46.5452 141.682 46.7179 141.612 46.9232 141.612C47.1285 141.612 47.3012 141.677 47.4412 141.808C47.5812 141.939 47.6512 142.102 47.6512 142.298C47.6512 142.503 47.5812 142.676 47.4412 142.816C47.3105 142.956 47.1379 143.026 46.9232 143.026ZM50.179 152V141.612H51.173V152H50.179ZM56.7628 152V151.286L60.8368 147.296C61.2101 146.932 61.4901 146.615 61.6768 146.344C61.8635 146.064 61.9895 145.803 62.0548 145.56C62.1201 145.317 62.1528 145.089 62.1528 144.874C62.1528 144.305 61.9568 143.857 61.5648 143.53C61.1821 143.203 60.6128 143.04 59.8568 143.04C59.2781 143.04 58.7648 143.129 58.3168 143.306C57.8781 143.483 57.5001 143.759 57.1828 144.132L56.4688 143.516C56.8515 143.068 57.3415 142.723 57.9388 142.48C58.5361 142.237 59.2035 142.116 59.9408 142.116C60.6035 142.116 61.1775 142.223 61.6628 142.438C62.1481 142.643 62.5215 142.947 62.7828 143.348C63.0535 143.749 63.1888 144.221 63.1888 144.762C63.1888 145.079 63.1421 145.392 63.0488 145.7C62.9648 146.008 62.8061 146.335 62.5728 146.68C62.3488 147.016 62.0175 147.399 61.5788 147.828L57.8408 151.496L57.5608 151.104H63.6368V152H56.7628ZM68.7805 152.084C68.0245 152.084 67.3525 151.888 66.7645 151.496C66.1765 151.095 65.7145 150.525 65.3785 149.788C65.0425 149.041 64.8745 148.145 64.8745 147.1C64.8745 146.055 65.0425 145.163 65.3785 144.426C65.7145 143.679 66.1765 143.11 66.7645 142.718C67.3525 142.317 68.0245 142.116 68.7805 142.116C69.5365 142.116 70.2085 142.317 70.7965 142.718C71.3845 143.11 71.8465 143.679 72.1825 144.426C72.5278 145.163 72.7005 146.055 72.7005 147.1C72.7005 148.145 72.5278 149.041 72.1825 149.788C71.8465 150.525 71.3845 151.095 70.7965 151.496C70.2085 151.888 69.5365 152.084 68.7805 152.084ZM68.7805 151.16C69.3592 151.16 69.8632 151.006 70.2925 150.698C70.7218 150.381 71.0578 149.923 71.3005 149.326C71.5432 148.719 71.6645 147.977 71.6645 147.1C71.6645 146.223 71.5432 145.485 71.3005 144.888C71.0578 144.281 70.7218 143.824 70.2925 143.516C69.8632 143.199 69.3592 143.04 68.7805 143.04C68.2205 143.04 67.7212 143.199 67.2825 143.516C66.8438 143.824 66.5032 144.281 66.2605 144.888C66.0178 145.485 65.8965 146.223 65.8965 147.1C65.8965 147.977 66.0178 148.719 66.2605 149.326C66.5032 149.923 66.8438 150.381 67.2825 150.698C67.7212 151.006 68.2205 151.16 68.7805 151.16ZM73.962 152V151.286L78.036 147.296C78.4093 146.932 78.6893 146.615 78.876 146.344C79.0627 146.064 79.1887 145.803 79.254 145.56C79.3193 145.317 79.352 145.089 79.352 144.874C79.352 144.305 79.156 143.857 78.764 143.53C78.3813 143.203 77.812 143.04 77.056 143.04C76.4773 143.04 75.964 143.129 75.516 143.306C75.0773 143.483 74.6993 143.759 74.382 144.132L73.668 143.516C74.0507 143.068 74.5407 142.723 75.138 142.48C75.7353 142.237 76.4027 142.116 77.14 142.116C77.8027 142.116 78.3767 142.223 78.862 142.438C79.3473 142.643 79.7207 142.947 79.982 143.348C80.2527 143.749 80.388 144.221 80.388 144.762C80.388 145.079 80.3413 145.392 80.248 145.7C80.164 146.008 80.0053 146.335 79.772 146.68C79.548 147.016 79.2167 147.399 78.778 147.828L75.04 151.496L74.76 151.104H80.836V152H73.962ZM81.919 152V151.286L85.993 147.296C86.3664 146.932 86.6464 146.615 86.833 146.344C87.0197 146.064 87.1457 145.803 87.211 145.56C87.2764 145.317 87.309 145.089 87.309 144.874C87.309 144.305 87.113 143.857 86.721 143.53C86.3384 143.203 85.769 143.04 85.013 143.04C84.4344 143.04 83.921 143.129 83.473 143.306C83.0344 143.483 82.6564 143.759 82.339 144.132L81.625 143.516C82.0077 143.068 82.4977 142.723 83.095 142.48C83.6924 142.237 84.3597 142.116 85.097 142.116C85.7597 142.116 86.3337 142.223 86.819 142.438C87.3044 142.643 87.6777 142.947 87.939 143.348C88.2097 143.749 88.345 144.221 88.345 144.762C88.345 145.079 88.2984 145.392 88.205 145.7C88.121 146.008 87.9624 146.335 87.729 146.68C87.505 147.016 87.1737 147.399 86.735 147.828L82.997 151.496L82.717 151.104H88.793V152H81.919Z" fill="#FAFAFA"/>
<path d="M26.72 196.88V174.32H28.688V196.88H26.72ZM27.464 194.24C26.152 194.24 24.896 194.056 23.696 193.688C22.496 193.304 21.544 192.816 20.84 192.224L21.92 189.8C22.592 190.328 23.424 190.768 24.416 191.12C25.408 191.472 26.424 191.648 27.464 191.648C28.344 191.648 29.056 191.552 29.6 191.36C30.144 191.168 30.544 190.912 30.8 190.592C31.056 190.256 31.184 189.88 31.184 189.464C31.184 188.952 31 188.544 30.632 188.24C30.264 187.92 29.784 187.672 29.192 187.496C28.616 187.304 27.968 187.128 27.248 186.968C26.544 186.808 25.832 186.624 25.112 186.416C24.408 186.192 23.76 185.912 23.168 185.576C22.592 185.224 22.12 184.76 21.752 184.184C21.384 183.608 21.2 182.872 21.2 181.976C21.2 181.064 21.44 180.232 21.92 179.48C22.416 178.712 23.16 178.104 24.152 177.656C25.16 177.192 26.432 176.96 27.968 176.96C28.976 176.96 29.976 177.088 30.968 177.344C31.96 177.6 32.824 177.968 33.56 178.448L32.576 180.872C31.824 180.424 31.048 180.096 30.248 179.888C29.448 179.664 28.68 179.552 27.944 179.552C27.08 179.552 26.376 179.656 25.832 179.864C25.304 180.072 24.912 180.344 24.656 180.68C24.416 181.016 24.296 181.4 24.296 181.832C24.296 182.344 24.472 182.76 24.824 183.08C25.192 183.384 25.664 183.624 26.24 183.8C26.832 183.976 27.488 184.152 28.208 184.328C28.928 184.488 29.64 184.672 30.344 184.88C31.064 185.088 31.712 185.36 32.288 185.696C32.88 186.032 33.352 186.488 33.704 187.064C34.072 187.64 34.256 188.368 34.256 189.248C34.256 190.144 34.008 190.976 33.512 191.744C33.032 192.496 32.288 193.104 31.28 193.568C30.272 194.016 29 194.24 27.464 194.24ZM35.9338 194V191.912L42.6058 185.576C43.1658 185.048 43.5818 184.584 43.8538 184.184C44.1258 183.784 44.3018 183.416 44.3818 183.08C44.4778 182.728 44.5258 182.4 44.5258 182.096C44.5258 181.328 44.2618 180.736 43.7338 180.32C43.2058 179.888 42.4298 179.672 41.4058 179.672C40.5898 179.672 39.8458 179.816 39.1738 180.104C38.5178 180.392 37.9498 180.832 37.4698 181.424L35.2858 179.744C35.9418 178.864 36.8218 178.184 37.9258 177.704C39.0458 177.208 40.2938 176.96 41.6698 176.96C42.8858 176.96 43.9418 177.16 44.8378 177.56C45.7498 177.944 46.4458 178.496 46.9258 179.216C47.4218 179.936 47.6698 180.792 47.6698 181.784C47.6698 182.328 47.5978 182.872 47.4538 183.416C47.3098 183.944 47.0378 184.504 46.6378 185.096C46.2378 185.688 45.6538 186.352 44.8858 187.088L39.1498 192.536L38.5018 191.36H48.3177V194H35.9338ZM57.1265 194.24C55.7985 194.24 54.5985 193.904 53.5265 193.232C52.4705 192.56 51.6385 191.584 51.0305 190.304C50.4225 189.008 50.1185 187.44 50.1185 185.6C50.1185 183.76 50.4225 182.2 51.0305 180.92C51.6385 179.624 52.4705 178.64 53.5265 177.968C54.5985 177.296 55.7985 176.96 57.1265 176.96C58.4705 176.96 59.6705 177.296 60.7265 177.968C61.7825 178.64 62.6145 179.624 63.2225 180.92C63.8465 182.2 64.1585 183.76 64.1585 185.6C64.1585 187.44 63.8465 189.008 63.2225 190.304C62.6145 191.584 61.7825 192.56 60.7265 193.232C59.6705 193.904 58.4705 194.24 57.1265 194.24ZM57.1265 191.528C57.9105 191.528 58.5905 191.32 59.1665 190.904C59.7425 190.472 60.1905 189.816 60.5105 188.936C60.8465 188.056 61.0145 186.944 61.0145 185.6C61.0145 184.24 60.8465 183.128 60.5105 182.264C60.1905 181.384 59.7425 180.736 59.1665 180.32C58.5905 179.888 57.9105 179.672 57.1265 179.672C56.3745 179.672 55.7025 179.888 55.1105 180.32C54.5345 180.736 54.0785 181.384 53.7425 182.264C53.4225 183.128 53.2625 184.24 53.2625 185.6C53.2625 186.944 53.4225 188.056 53.7425 188.936C54.0785 189.816 54.5345 190.472 55.1105 190.904C55.7025 191.32 56.3745 191.528 57.1265 191.528ZM66.1057 197.624L67.4977 192.32L67.9057 194.096C67.3457 194.096 66.8737 193.928 66.4897 193.592C66.1217 193.24 65.9377 192.768 65.9377 192.176C65.9377 191.568 66.1217 191.088 66.4897 190.736C66.8737 190.368 67.3377 190.184 67.8817 190.184C68.4417 190.184 68.9057 190.368 69.2737 190.736C69.6417 191.104 69.8257 191.584 69.8257 192.176C69.8257 192.336 69.8097 192.512 69.7777 192.704C69.7457 192.88 69.6897 193.088 69.6097 193.328C69.5457 193.568 69.4337 193.872 69.2737 194.24L68.0497 197.624H66.1057ZM74.1815 194V178.4L75.5495 179.816H70.6295V177.2H77.3015V194H74.1815ZM80.4181 194V191.912L87.0901 185.576C87.6501 185.048 88.0661 184.584 88.3381 184.184C88.6101 183.784 88.7861 183.416 88.8661 183.08C88.9621 182.728 89.0101 182.4 89.0101 182.096C89.0101 181.328 88.7461 180.736 88.2181 180.32C87.6901 179.888 86.9141 179.672 85.8901 179.672C85.0741 179.672 84.3301 179.816 83.6581 180.104C83.0021 180.392 82.4341 180.832 81.9541 181.424L79.7701 179.744C80.4261 178.864 81.3061 178.184 82.4101 177.704C83.5301 177.208 84.7781 176.96 86.1541 176.96C87.3701 176.96 88.4261 177.16 89.3221 177.56C90.2341 177.944 90.9301 178.496 91.4101 179.216C91.9061 179.936 92.1541 180.792 92.1541 181.784C92.1541 182.328 92.0821 182.872 91.9381 183.416C91.7941 183.944 91.5221 184.504 91.1221 185.096C90.7221 185.688 90.1381 186.352 89.3701 187.088L83.6341 192.536L82.9861 191.36H92.8021V194H80.4181ZM100.267 176.96C101.803 176.96 103.107 177.288 104.179 177.944C105.267 178.584 106.099 179.52 106.675 180.752C107.251 181.984 107.539 183.504 107.539 185.312C107.539 187.232 107.187 188.856 106.483 190.184C105.795 191.512 104.835 192.52 103.603 193.208C102.371 193.896 100.939 194.24 99.3069 194.24C98.4589 194.24 97.6509 194.152 96.8829 193.976C96.1149 193.8 95.4509 193.528 94.8909 193.16L96.0429 190.808C96.5069 191.112 97.0109 191.328 97.5549 191.456C98.0989 191.568 98.6589 191.624 99.2349 191.624C100.819 191.624 102.075 191.136 103.003 190.16C103.931 189.184 104.395 187.744 104.395 185.84C104.395 185.536 104.387 185.184 104.371 184.784C104.355 184.368 104.299 183.952 104.203 183.536L105.163 184.592C104.891 185.248 104.499 185.8 103.987 186.248C103.475 186.68 102.875 187.008 102.187 187.232C101.499 187.456 100.739 187.568 99.9069 187.568C98.8189 187.568 97.8349 187.36 96.9549 186.944C96.0909 186.512 95.4029 185.912 94.8909 185.144C94.3789 184.36 94.1229 183.448 94.1229 182.408C94.1229 181.288 94.3949 180.328 94.9389 179.528C95.4829 178.712 96.2189 178.08 97.1469 177.632C98.0909 177.184 99.1309 176.96 100.267 176.96ZM100.435 179.408C99.7949 179.408 99.2269 179.528 98.7309 179.768C98.2349 179.992 97.8429 180.32 97.5549 180.752C97.2829 181.168 97.1469 181.672 97.1469 182.264C97.1469 183.144 97.4509 183.84 98.0589 184.352C98.6669 184.864 99.4829 185.12 100.507 185.12C101.179 185.12 101.771 185 102.283 184.76C102.795 184.504 103.195 184.16 103.483 183.728C103.771 183.28 103.915 182.784 103.915 182.24C103.915 181.712 103.779 181.24 103.507 180.824C103.235 180.392 102.843 180.048 102.331 179.792C101.819 179.536 101.187 179.408 100.435 179.408Z" fill="white"/>
</svg>
